<svg xmlns="http://www.w3.org/2000/svg" xmlns:xlink="http://www.w3.org/1999/xlink" xml:space="preserve" viewBox="0 0 800 800"><defs><path id="reuse-0" d="M0 680.315h680.315V0H0Z"/></defs><defs><clipPath id="a" clipPathUnits="userSpaceOnUse"><use xlink:href="#reuse-0"/></clipPath><clipPath id="e" clipPathUnits="userSpaceOnUse"><use xlink:href="#reuse-0"/></clipPath><clipPath id="f" clipPathUnits="userSpaceOnUse"><use xlink:href="#reuse-0"/></clipPath><clipPath id="g" clipPathUnits="userSpaceOnUse"><use xlink:href="#reuse-0"/></clipPath><linearGradient id="b" x1="0" x2="1" y1="0" y2="0" gradientTransform="matrix(0 278.42947 278.42947 0 216.49751 244.94133)" gradientUnits="userSpaceOnUse" spreadMethod="pad"><stop offset="0" stop-color="#f68512"/><stop offset=".15" stop-color="#f68512"/><stop offset="1" stop-color="#4a2504"/></linearGradient><linearGradient id="c" x1="0" x2="1" y1="0" y2="0" gradientTransform="matrix(0 121.2325 121.2325 0 245.33179 291.84106)" gradientUnits="userSpaceOnUse" spreadMethod="pad"><stop offset="0" stop-color="#f68512"/><stop offset=".15" stop-color="#f68512"/><stop offset="1" stop-color="#8a4909"/></linearGradient><linearGradient id="d" x1="0" x2="1" y1="0" y2="0" gradientTransform="matrix(0 24.148899 24.148899 0 267.72559 351.09256)" gradientUnits="userSpaceOnUse" spreadMethod="pad"><stop offset="0" stop-color="#f68512"/><stop offset=".15" stop-color="#f68512"/><stop offset="1" stop-color="#8a4909"/></linearGradient></defs><g clip-path="url(#a)" transform="matrix(1.3333333 0 0 -1.3333333 -13.79903 857.6397)"><path fill="#fff" d="M324.6077 607.8711c-.473 6.121-2.439 8.501-6.443 8.192-4.003-.308-5.582-2.962-5.11-9.083l.455-5.892c.472-6.121 2.435-8.444 6.439-8.135 4.003.308 5.586 2.905 5.114 9.026zm-3.869-25.159c-9.494-.731-17.934 3.51-19.011 17.468l-.455 5.891c-1.077 13.959 6.607 19.501 16.102 20.233 9.494.732 17.937-3.567 19.014-17.524l.454-5.892c1.078-13.959-6.61-19.444-16.104-20.176M365.804 583.498c-1.517-.437-4.465-.802-8.073-.614-10.541.549-17.346 6.648-16.664 19.769l.306 5.903c.682 13.121 8.082 18.481 18.622 17.932 3.61-.187 6.504-.855 7.967-1.448.902-.335 1.237-.524 1.195-1.326l-.381-7.335c-.042-.802-.291-1.192-1.26-1.027-2.337.352-4.728.764-7.992.934-3.094.16-5.973-1.068-6.351-8.345l-.307-5.901c-.374-7.22 2.301-8.796 5.451-8.959 3.265-.171 5.511-.058 8.047.098 1.037.06 1.182-.464 1.147-1.152l-.382-7.334c-.039-.745-.393-.956-1.325-1.195M393.9436 579.0479c-1.556-.267-4.525-.3-8.091.29-10.413 1.721-16.493 8.542-14.348 21.505l.963 5.831c2.144 12.963 10.098 17.464 20.51 15.743 3.566-.589 6.367-1.576 7.754-2.328.859-.434 1.17-.659 1.039-1.451l-1.198-7.246c-.131-.793-.423-1.152-1.366-.879-2.284.609-4.614 1.285-7.839 1.818-3.056.505-6.053-.394-7.242-7.584l-.965-5.83c-1.179-7.134 1.303-8.998 4.415-9.513 3.225-.532 5.471-.67 8.007-.799 1.037-.055 1.123-.592 1.01-1.272l-1.198-7.246c-.122-.735-.499-.906-1.451-1.039M407.9446 574.7988l-9.111 2.341c-.611.156-.983.785-.826 1.396l10.047 39.123c.157.612.771.928 1.382.77l9.111-2.341c.612-.157.998-.729.84-1.341l-10.047-39.123c-.157-.61-.785-.982-1.396-.825M450.5139 595.4336l-8.049 2.874-10.742-30.099c-.212-.594-.871-.907-1.466-.695l-8.805 3.145c-.595.212-.908.872-.696 1.466l10.742 30.099-8.212 2.932c-.593.213-.925.818-.713 1.413l2.468 6.917c.212.594.853.853 1.447.64l27.227-9.721c.596-.213.981-.838.769-1.433l-2.469-6.916c-.212-.595-.906-.834-1.501-.622M470.5413 585.5088c.13.513.259.769-.201 1.001-.461.233-.591-.023-.926-.433l-9.076-11.741 6.143-3.104zm-8.872-31.064 2.161 7.842-9.115 4.604-5.027-6.396c-.362-.46-.798-.817-1.516-.456l-8.858 4.475c-.767.388-.663.977-.276 1.489l22.686 27.88c3.686 4.501 8.044 3.586 12.907 1.129 4.864-2.456 8.188-5.421 6.755-11.06l-8.963-34.81c-.157-.693-.544-1.075-1.312-.688l-8.909 4.5c-.717.362-.689.926-.533 1.491M500.0013 528.2705l-6.284 4.427c-.844.594-1.19 1.399-1.077 2.653l1.83 22.221c.043.461-.065.605-.205.705-.141.099-.3.071-.533-.257l-11.266-15.992c-.363-.516-1.083-.64-1.599-.277l-7.035 4.957c-.515.363-.687 1.115-.323 1.63l22.665 32.172c.662.939 2.02 1.173 2.959.513l6.19-4.361c.891-.628 1.043-1.507.918-2.682l-1.88-22.887c-.044-.461-.015-.621.125-.718.141-.1.268-.12.532.255l11.697 16.602c.363.516 1.082.641 1.597.277l7.036-4.956c.515-.364.64-1.083.277-1.598l-22.666-32.172c-.661-.938-2.02-1.173-2.958-.512M512.4983 517.0186l-7.061 6.217c-.473.418-.519 1.146-.102 1.62l26.691 30.311c.417.474 1.109.477 1.581.06l7.062-6.218c.474-.418.558-1.103.141-1.576l-26.692-30.311c-.417-.474-1.145-.52-1.62-.103M534.387 495.0469c-1.707 1.386-4.442 3.693-8.267 7.734-5.046 5.333-8.842 11.85-.76 19.501l13.081 12.384c8.04 7.612 14.379 3.501 19.425-1.831 3.824-4.043 5.976-6.901 7.266-8.682.429-.621.456-1.148-.045-1.623l-5.082-4.811c-.458-.433-1.188-.413-1.622.045l-7.964 8.417c-1.419 1.5-2.35 1.565-3.974.027l-3.042-2.879 9.699-10.25c.433-.458.413-1.187-.045-1.622l-4.916-4.653c-.459-.434-1.188-.414-1.622.044l-9.698 10.25-3.457-3.274c-1.625-1.538-1.612-2.471-.192-3.971l7.964-8.416c.434-.459.413-1.19-.045-1.623l-5.082-4.812c-.5-.474-1.026-.419-1.622.045"/><path fill="#e9e8dd" d="M222.2884 222.9749c0 55.626 40.385 101.893 93.709 111.691.628 95.289 4.808 176.97 10.756 221.373-119.876-5.34-215.41-103.229-215.41-223.23 0-103.738 71.403-190.96 168.206-216.141l-3.874 10.309c-32.078 20.155-53.387 55.601-53.387 95.998"/><path fill="#f68512" d="m200.8806 441.2015-8.113-10.764 3.437 12.998-13.562-.43 12.4 5.434-8.785 10.233 12.033-6.206 2.59 13.177 2.602-13.177 12.034 6.206-8.799-10.233 12.405-5.434-13.561.43 3.447-12.998ZM242.6028 456.3328l-8.114-10.762 3.437 12.992-13.559-.423 12.403 5.433-8.783 10.237 12.018-6.216 2.598 13.181 2.602-13.181 12.023 6.216-8.79-10.237 12.409-5.433-13.563.423 3.44-12.992ZM284.3333 441.2015l-8.126-10.764 3.42 12.998-13.54-.43 12.405 5.434-8.791 10.233 12.028-6.206 2.604 13.177 2.597-13.177 12.024 6.206-8.786-10.233 12.406-5.434-13.573.43 3.435-12.998ZM223.3367 201.0697l-.722 1.952v3.206h-.036c-8.433.975-16.806 2.577-25.02 4.823-4.519 1.179-8.979 2.56-13.372 4.121-1.24 9.81-3.801 23.903-12.669 28.846-8.799 4.904-18.143 9.311-19.713 14.734-1.561 5.413 1.285-18.692 7.832-27.165 6.084-7.874 15.832-9.372 23.067-15.878-16.008 5.882-31.107 14.273-44.803 24.681 2.131 9.659 4.454 23.791-2.237 31.383-6.649 7.526-13.984 14.759-13.637 20.39.348 5.623-5.08-18.051-1.754-28.198 3.108-9.479 11.875-14.107 16.49-22.707-3.424 2.643-6.755 5.412-9.991 8.301.869-2.909 2.698-8.892 2.698-8.892 4.802-3.923 9.796-7.601 14.968-11.021-4.186 1.378-7.773 3.677-11.393 5.848 3.598-5.576 3.882-6.113 4.705-10.419 3.065 1.038 5.985 2.243 8.559 3.364 14.05-9.044 29.365-16.176 45.617-21.03-9.974.134-18.136 5.947-28.177 4.439-3.906-.581-8.928-3.016-13.48-5.734l6.049-9.457c2.372-.616 4.818-1.295 7.26-1.928 9.978-2.559 21.877 6.068 29.637 12.297 9.742-2.826 19.809-4.837 30.122-5.956M223.6604 200.1868c-8.192-1.651-16.482-.211-24.197-4.396-9.453-5.121-21.933-26.018-18.282-21.689 3.65 4.326 13.996 4.604 24.055 5.559 8.103.772 14.906 8.5 19.938 15.896.029.047.095.092.137.138z"/></g><path fill="url(#b)" d="M264.644 523.112c3.38-1.027 6.029-6.811 9.006-12.275 2.612-4.772 9.572-6.698 15.381-7.695 3.422-2.432 8.577-5.963 15.975-10.953.54-.338 1.074-.691 1.602-1.047-5.428 1.179-9.791 4.685-15.585 4.485-6.67-.225-19.475-8.371-16.238-6.977 3.241 1.387 9.057-1.316 14.902-3.561 5.689-2.183 13.215 1.798 18.443 5.025 3.829-2.635 7.505-5.486 11.011-8.544l-.344-3.001c-1.592.977-3.296 1.784-5.279 2.191-3.484.718-9.187-.339-13.236-1.396-3.563-.929-5.847-1.859-4.217-1.58 3.487.593 8.493-3.395 13.63-6.945 2.412-1.663 5.561-2.037 8.844-1.769 3.741.309-2.668-5.456-2.668-5.456 1.518-.189 3.055-1.284 4.625-2.857l-4-111.748c2.166 36.002 7.388 133.086 1.071 138.232 1.082 6.038 2.214 14.921-2.149 19.491-4.313 4.509-9.029 8.82-8.952 12.313.075 3.492-2.709-11.313-.399-17.526 2.168-5.828 7.761-8.486 10.828-13.761-3.799 3.043-7.76 5.861-11.889 8.434-2.746 1.305-8.754 4.718-13.755 7.482-3.975 4.518-4.816 10.51-9.672 14.332-4.339 3.398-15.415 5.365-17.183 5.365-.368 0-.333-.085.248-.259m-45.28 0c-.919-.279-1.784-.908-2.616-1.786 2.127 1.155 3.543 1.916 3.18 1.916-.086 0-.269-.042-.564-.13m-13.144-8.195c-4.512-3.559-9.356-5.882-12.67-10.247-5.095-3.097-11.22-9.05-15.423-11.891-.742-.495-3.295-3.432-6.796-7.73 1.631 1.714 3.471 3.357 5.766 4.939.029.018.058.04.088.064 5.229-3.222 12.689-7.137 18.344-4.963 5.845 2.245 11.659 4.948 14.904 3.561 3.248-1.394-9.563 6.752-16.24 6.977-5.767.2-10.12-3.268-15.519-4.471 7.278 5.406 12.316 9.25 15.605 11.861 5.93.971 13.36 2.861 16.064 7.82 2.174 3.982 4.171 8.133 6.405 10.489-3.095-1.679-7.698-4.192-10.528-6.409m-45.277-42.329c.303.128.587.264.855.405 3.482 4.506 6.797 8.697 9.533 12.056-3.603-3.784-6.186-7.909-10.388-12.461m10.759 8.172c-5.649-1.157-5.361-5.364-9.904-7.767-.702-.908-1.409-1.827-2.121-2.756.186.058.359.069.52.026 5.258-1.396 11.325-2.185 15.324.576 5.14 3.55 10.145 7.538 13.633 6.945 1.626-.279-.659.651-4.222 1.58-3.125.816-7.235 1.631-10.547 1.631-.979 0-1.889-.071-2.683-.235m-19.923-19.331c.538.291 1.156.551 1.831.783 1.998 2.679 4.047 5.387 6.067 8.025-1.523-.482-3.927-4.223-7.898-8.808m1.831.783c-3.842-5.151-7.499-10.197-10.427-14.458.195.192.35.298.455.301 5.501.155 11.663 1.136 14.718 4.985 3.874 4.874 7.477 10.134 10.986 10.574 1.29.161.043.337-2.339.337-3.493 0-9.429-.378-13.393-1.739m-14.982-21.448c1.13 1.895 2.696 4.284 4.555 6.99-.943-.934-2.82-3.9-4.555-6.99m-1.527-2.826c.475.917.995 1.878 1.527 2.826-.674-1.13-1.193-2.084-1.527-2.826m-1.196-4.999c-.839-.84-1.136-.822-1.057-.243-3.667-8.405-8.063-17.864-12.302-25.977-.852-6.031-1.314-12.182-1.314-18.451 0-4.224.206-8.402.602-12.522-1.815 3.623-2.144 7.502-3.074 11.202-.386-1.512-.924-2.578-2.023-9.651 1.79-.938 3.581-1.751 5.188-2.443 1.316-12.861 4.515-25.139 9.294-36.552-4.274 4.901-5.044 11.39-10.226 15.588-1.68 1.358-4.337 2.523-7.116 3.457 0 0-1.04-4.344-1.467-10.999 3.151-5.967 12.644-7.939 19.188-8.962 4.972-11.6 11.585-22.282 19.542-31.725-5.979 3.48-8.468 9.91-14.872 12.653-6.558 2.804-22.701.731-18.923.601 3.782-.112 8.152-5.361 12.764-10.184 4.76-4.976 14.7-4.174 21.276-3.363 7.579-8.937 16.351-16.75 26.074-23.174-5.961 1.968-10.104 6.732-16.543 7.475-3.516.401-8.932-1.011-13.061-2.422-4.213-1.44-7.089-2.88-5.244-2.395 3.655.957 9.365-2.817 15.185-6.114 5.857-3.324 14.844.017 20.9 2.657 9.325-6.005 19.494-10.741 30.272-13.957-6.617.086-12.031 3.944-18.699 2.945-7.07-1.061-19.651-11.272-16.385-9.401 3.28 1.875 9.785-.283 16.282-1.957 6.61-1.7 14.51 4.022 19.662 8.151 6.713-1.942 13.653-3.308 20.774-4.03 6.593 16.254 14.849 28.657 23.607 38.178-17.238-17.729-22.602-34.918-22.602-34.918-6.371.611-12.701 1.756-18.901 3.45-2.999.77-5.952 1.699-8.869 2.737-.819 6.507-2.529 15.859-8.404 19.136-5.843 3.268-12.047 6.184-13.089 9.785-1.04 3.599.855-12.411 5.203-18.032 4.034-5.224 10.511-6.221 15.3-10.543-10.617 3.905-20.643 9.486-29.727 16.382 1.415 6.42 2.952 15.793-1.486 20.824-4.417 5.002-9.286 9.8-9.046 13.544.226 3.726-3.373-11.988-1.168-18.721 2.06-6.287 7.883-9.356 10.946-15.073-8.393 6.483-15.969 14.109-22.473 22.61 2.728 5.979 6.285 14.93 2.958 20.81-3.262 5.798-7.027 11.492-6.02 15.099 1.01 3.602-5.804-11.028-5.05-18.068.704-6.644 5.862-10.86 7.612-17.184-5.7 7.546-10.561 15.772-14.384 24.507-1.282 2.824-2.421 5.731-3.47 8.661 4.476 4.828 10.416 12.062 9.162 18.548-1.268 6.519-3.032 13.093-.929 16.2 2.106 3.113-9.004-8.661-10.531-15.576-1.368-6.204 1.767-11.577 1.792-17.722-3.696 10.847-5.808 22.246-6.382 33.734 5.62 3.484 13.59 8.987 14.119 15.703.517 6.627.575 13.42 3.425 15.874 2.864 2.453-10.996-6-14.314-12.274-3.122-5.919-1.197-12.251-3.272-18.477-.503 11.487.543 23.042 3.08 34.224 5.987 1.592 14.617 4.347 16.95 10.213 2.296 5.772 4.233 11.837 7.46 13.254.466.204.558.299.36.3-1.173 0-12.535-3.358-16.554-7.392m-1.057-.243c.783 1.794 1.533 3.541 2.241 5.216.004.009.008.018.012.026-1.213-2.339-2.136-4.393-2.253-5.242m180.816-96.975c0-.31-.357-.597-1.028-.896.451.111.908.22 1.364.328l.496 13.856c-.496-8.246-.832-13.288-.832-13.288m-14.743-4.975c6.689 2.143 11.667 3.167 13.715 4.079-4.835-1.184-9.397-2.554-13.715-4.079m-46.712-29.422c10.587 10.889 25.658 21.984 46.712 29.422-12.295-3.94-30.375-11.661-46.712-29.422m-23.778-38.602c.418.092.836.198 1.252.319-.36.033-.721.068-1.081.105-.056-.139-.115-.285-.171-.424m-16.456-2.99c-6.275-3.402-14.554-17.272-12.127-14.403 2.42 2.881 9.289 3.058 15.958 3.697 3.695.352 6.991 2.889 9.77 6.037.911 2.644 1.863 5.193 2.855 7.659-5.563-1.233-11.211-.152-16.456-2.99" transform="matrix(1.3333333 0 0 -1.3333333 -13.79903 857.6397)"/><path fill="url(#c)" d="m286.459 411.787-.606-10.523-7.318-1.152.285 4.674-1.502 5.217-8.013-1.209-.625-10.082-6.821-1.081.301 4.665-1.4 5.137-8.105-1.294-.717-10.217-5.511-.868.242 4.941-1.81 5.176-8.187-1.195-.64-10.565-5.298-.831.354 5.085-2.328 5.097-7.645-1.425-.615-10.241-4.977-.916.318 5.208-2.813 4.84-7.481-1.614-.576-10.099-4.853-.763.316 5.333-2.306 4.639-7.635-1.147s-3.324-85.59-3.681-94.942c2.448-1.654 5.571-3.251 8.603-4.95 2.219-1.234 3.843-2.353 5.054-4.844 3.871 17.826 9.563 37.978 19.145 54.888 20.13 35.505 70.515 49.597 70.515 49.597l1.392.273-.007-1.646-2.63-.923-.085-4.006 2.496.112v-11.031l-3.743-.941-.159-3.642 3.902.252v-4.15l-3.818-.667-.342-3.805 4.16.354v-4.458l-2.354-.644-.27-6.9 2.624.092v-4.847l-1.859-.345-.091-5.185 1.95-.043v-4.367l-2.721-.561.095-4.017 1.457-.182-.054-6.564 3.73-.487-.111 67.872s4.899-18.985 7.824-42.253c2.208-17.589 2.194-21.247 2.194-21.247l.143 19.299-9.121 61.405z" transform="matrix(1.3333333 0 0 -1.3333333 -13.79903 857.6397)"/><path fill="url(#d)" d="m263.021 373.785-.386-22.692 9.66 1.247.521 22.902zm1.602-2.436 7.4 1.192s-1.204-1.343-3.921-3.747c-2.729-2.406-3.795-14.516-3.795-14.516z" transform="matrix(1.3333333 0 0 -1.3333333 -13.79903 857.6397)"/><g clip-path="url(#e)" transform="matrix(1.3333333 0 0 -1.3333333 -13.79903 857.6397)"><path fill="#643306" d="M326.7766 549.0168c-3.503 1.364-7.093 2.432-11.158 2.292-10.066-.342-29.359-12.615-24.474-10.519 4.888 2.095 13.645-1.975 22.458-5.359 3.516-1.355 7.511-1.14 11.533-.077z"/><path fill="#fff" d="M326.6975 553.5364c-119.92-6.864-213.404-103.32-213.404-220.936 0-98.833 67.231-185.592 164.128-212.725l-1.82 4.765c-34.323 21.586-54.781 58.124-54.781 97.909 0 55.381 39.964 103 95.34 114.055.659 90.303 4.579 170.827 10.537 216.932m-40.69-441.29-4.959 1.273c-101.905 26.112-173.077 116.204-173.077 219.081 0 58.708 22.931 114.366 64.571 156.726 41.509 42.231 97.298 66.932 157.082 69.554l3.177.14-.417-3.073c-6.21-45.682-10.295-128.485-10.918-221.499l-.012-2.141-2.163-.396c-53.976-9.771-93.15-55.769-93.15-109.362 0-38.297 19.839-73.438 53.067-93.998l.759-.467z"/><path fill="#ee262c" d="M567.9864 341.2838c5.501-55.767-24.18-181.523-162.519-223.498 0 0-4.219-4.864-4.874-.475-.118.795 3.749 8.664 3.601 9.608 63.878 39.091 52.729 120.22 46.225 133.515-32.737 66.98-62.416 63.521-88.782 74.818 0 41.176-.63 189.879-10.028 220.787 17.551 2.982 93.445-15.649 125.402-42.361 76.944-64.316 85.538-117.368 90.975-172.394"/><path fill="#f9db41" d="M407.822 365.3591c-3.046 0-5.542-2.546-5.542-5.652 0-3.1 2.496-5.616 5.542-5.616 3.042 0 5.508 2.516 5.508 5.616 0 3.106-2.466 5.652-5.508 5.652"/><path fill="#f9db41" d="M508.6041 378.6149c-.322-1.464-.441-2.924-.404-4.351-6.651 5.59-16.081 9.404-37.317 9.572l-2.697.025.019-2.695c.164-21.757 3.952-31.335 9.469-38.102-.174.006-.346.01-.527.01-4.002 0-9.431-1.366-14.1-7.304-4.552 5.866-10.289 7.219-14.606 7.219-.197 0-.393-.004-.586-.01 6.069 6.768 9.798 15.836 9.958 38.187l.022 2.685-2.684-.015c-14.05-.062-23.477-1.557-30.561-4.851-2.9-1.342-5.272-2.944-7.368-4.716.038 1.428-.085 2.886-.407 4.352-.902 4.069-3.187 7.595-6.816 10.528 3.299 2.632 5.478 5.921 6.504 9.805.507 1.909.68 3.813.634 5.64 6.679-6.181 15.713-9.964 38.017-10.055l2.673-.012-.014 2.674c-.087 22.836-3.833 32.01-9.951 38.824.192-.004.384-.006.58-.006 4.318 0 10.053 1.349 14.605 7.219 4.662-5.926 10.082-7.284 14.074-7.284.178 0 .36.002.543.009-1.77-2.161-3.366-4.611-4.711-7.61-3.223-7.221-4.69-16.825-4.748-31.152l-.008-2.685 2.686.023c21.807.161 30.738 3.926 37.372 10.06-.049-1.838.13-3.751.634-5.678 1.026-3.888 3.202-7.177 6.486-9.808-3.604-2.924-5.875-6.441-6.771-10.498m18.745 16.894c-2.626 0-4.812-1.872-5.371-4.371l-.604.335c-3.914 2.181-6.388 5.136-7.35 8.798-1.423 5.408.704 10.928 2.024 13.09l-.859.616c.565-.201 1.171-.322 1.798-.322 3.043 0 5.545 2.551 5.545 5.655 0 3.109-2.502 5.618-5.545 5.618-3.042 0-5.508-2.509-5.508-5.618 0-1.356.471-2.599 1.253-3.578l-.991.706-.674-.812c-8.03-9.698-12.578-15.197-37.528-15.745.478 26.264 6.293 31.566 14.948 39.461l.416.377c.774-.426 1.657-.664 2.593-.664 3.04 0 5.54 2.512 5.54 5.616 0 3.108-2.5 5.656-5.54 5.656-3.045 0-5.511-2.548-5.511-5.656 0-.261.028-.515.059-.766l-.169.211c-1.936-1.379-5.25-2.857-8.754-2.857-4.769 0-8.739 2.73-11.803 8.117l-.415.725c1.934.869 3.289 2.841 3.289 5.14 0 3.103-2.466 5.653-5.51 5.653-3.041 0-5.51-2.55-5.51-5.653 0-2.498 1.602-4.615 3.807-5.344l-.307-.585c-2.832-5.297-6.948-7.985-12.23-7.986-4.026-.001-7.593 1.581-9.066 2.517l-.08-.106c.048.306.086.618.086.934 0 3.108-2.5 5.656-5.546 5.656-3.043 0-5.506-2.548-5.506-5.656 0-3.104 2.463-5.616 5.506-5.616.86 0 1.673.207 2.399.563l-.016-.026.851-.736c9.56-8.222 14.97-12.87 15.407-38.979-25.495.455-30.043 5.956-38.093 15.688l-.726.873-1.515-1.081c.968 1.013 1.563 2.39 1.563 3.919 0 3.109-2.458 5.652-5.506 5.652-3.041 0-5.542-2.543-5.542-5.652 0-3.101 2.501-5.621 5.542-5.621.808 0 1.577.186 2.272.506l-1.121-.799c1.318-2.158 3.437-7.671 2.022-13.047-.967-3.661-3.445-6.623-7.379-8.807l-1.822-1.009c-.294 2.819-2.628 5.01-5.472 5.01-3.045 0-5.541-2.515-5.541-5.617 0-3.099 2.496-5.619 5.541-5.619 2.426 0 4.483 1.599 5.217 3.825l2.014-1.195c4.29-2.539 6.882-5.712 7.702-9.428.989-4.48-.738-9.092-2.515-11.68l4.185-3.251.667.76c7.704 8.789 12.878 14.699 38.505 15.189-.532-25.548-5.923-30.187-15.453-38.388l-.269-.232c-.847.537-1.847.853-2.917.853-3.043 0-5.506-2.513-5.506-5.616 0-3.108 2.463-5.656 5.506-5.656 3.046 0 5.546 2.548 5.546 5.656 0 .017-.005.032-.005.052 1.477.937 5.039 2.516 9.064 2.516 5.259 0 9.357-2.665 12.191-7.925-2.024-.829-3.46-2.846-3.46-5.212 0-3.103 2.469-5.654 5.51-5.654 3.044 0 5.51 2.551 5.51 5.654 0 2.159-1.195 4.029-2.941 4.969l.067.119c3.075 5.397 7.049 8.134 11.829 8.134 3.506 0 6.805-1.464 8.728-2.838l.11.142c.027-3.083 2.478-5.613 5.511-5.613 3.04 0 5.54 2.548 5.54 5.656 0 3.103-2.5 5.616-5.54 5.616-1.142 0-2.201-.355-3.08-.956-8.555 7.797-14.301 13.125-14.863 38.718 25.117-.586 30.288-6.492 37.98-15.266l.603-.678.965.753c-.774-.966-1.24-2.2-1.24-3.553 0-3.102 2.461-5.653 5.508-5.653 3.044 0 5.54 2.551 5.54 5.653 0 3.106-2.496 5.615-5.54 5.615-.801 0-1.556-.172-2.239-.488l1.184.924c-1.776 2.59-3.509 7.21-2.523 11.676.813 3.704 3.388 6.868 7.647 9.401l.961.568c.892-1.871 2.77-3.167 4.95-3.167 3.046 0 5.542 2.52 5.542 5.619 0 3.102-2.496 5.617-5.542 5.617"/></g><g clip-path="url(#f)" transform="matrix(1.3333333 0 0 -1.3333333 -13.79903 857.6397)"><path fill="#f4f4f4" d="m380.2507 289.2163-2.391-38.367 1.744-3.314c3.557-2.091 7.695-3.289 12.117-3.289 3.797 0 7.394.892 10.587 2.463l.538 6.328s-.656 26.895-.905 36.811c-3.101 1.471-6.562 2.29-10.22 2.29-4.159 0-8.063-1.061-11.47-2.922"/><path fill="#1f52a6" d="M367.7751 268.188c0-9.845 5.94-18.293 14.434-21.972v43.952c-8.494-3.68-14.434-12.136-14.434-21.98"/><path fill="#ef2e31" d="M400.4773 290.4722v-44.566c8.897 3.496 15.189 12.154 15.189 22.282 0 10.13-6.292 18.786-15.189 22.284"/></g><g clip-path="url(#g)" transform="matrix(1.3333333 0 0 -1.3333333 -13.79903 857.6397)"><path fill="#fff" d="M94.7522 400.4569c-.089-2.102-.716-5.962-1.422-8.918-1.705-7.141-5.098-13.937-15.923-11.351l-28.347 6.775c-.614.147-.983.825-.836 1.439l2.171 9.093c.147.613.769.996 1.382.849l28.348-6.775c2.176-.52 2.95.003 3.429 2.011l2.158 9.037c.146.614.769.996 1.383.849l6.807-1.627c.67-.16.912-.63.85-1.382M101.3797 417.3129c-3.134-8.444-8.663-15.266-21.68-10.436l-23.72 8.802c-.592.219-.876.937-.657 1.529l3.234 8.713c.219.592.883.896 1.475.677l23.72-8.802c4.895-1.816 7.013-.889 8.43 2.93 1.417 3.819.436 5.958-4.458 7.774l-23.72 8.801c-.592.22-.896.884-.677 1.475l3.233 8.714c.22.592.903.95 1.495.73l23.72-8.802c13.017-4.83 12.738-13.66 9.605-22.105M97.572 468.0189c-6.035 3.311-8.748 2.182-10.955-1.842-.331-.603-.773-1.408-1.523-2.894l20.772-11.394c.243.325 1.264 2.186 1.623 2.84 2.207 4.023 1.701 6.917-4.385 10.256zm18.617-18.063c-2.621-4.778-5.285-8.681-7.173-11.048-.807-.996-1.486-1.279-2.843-.534l-32.691 17.932c-1.358.745-1.484 1.469-1.079 2.686.982 2.863 2.815 7.158 5.463 11.986 5.462 9.958 14.046 13.559 25.361 7.352l5.533-3.036c11.316-6.207 12.919-15.33 7.429-25.338M120.2268 501.1971c-4.906 3.69-7.992 3.786-10.405.576-2.413-3.21-1.464-6.148 3.442-9.838l4.723-3.552c4.906-3.69 7.947-3.751 10.359-.542 2.413 3.21 1.51 6.114-3.396 9.804zm16.327-19.529c-5.722-7.611-14.48-11.145-25.668-2.731l-4.722 3.552c-11.189 8.414-10.272 17.845-4.55 25.457 5.722 7.611 14.526 11.111 25.714 2.696l4.722-3.551c11.189-8.415 10.226-17.811 4.504-25.423M158.0081 506.6707c-3.301-3.352-6.447-5.648-9.194-7.211-.525-.288-1.213-.496-1.662-.053l-5.029 4.951c-.572.563-.616 1.09.028 1.663 1.895 1.597 6.651 5.528 8.785 7.695 1.972 2.003 1.759 3.34.45 4.628-.817.805-1.669.839-4.058.212l-9.271-2.465c-6.032-1.628-9.818.087-12.966 3.186-4.455 4.388-5.719 10.463 2.412 18.721 3.18 3.229 8.018 7.08 10.159 8.273.485.247 1.052.413 1.501-.029l5.11-5.032c.45-.443.657-.969-.028-1.583-1.773-1.555-6.771-5.812-9.669-8.755-1.489-1.513-1.481-2.568-.623-3.413.736-.725 1.507-.759 4.178.073l8.377 2.62c6.031 1.873 10.138.646 13.53-2.694 4.579-4.509 6.262-12.366-2.03-20.787M170.1848 556.3098c-2.05 2.621-4.67 2.247-7.697-.121-.316-.247-2.902-2.342-3.173-2.554l6.008-7.683c.261.131 2.972 2.252 3.243 2.464 3.163 2.474 3.881 5.001 1.902 7.532zm4.354-15.532c-.994-.778-2.059-1.465-3.314-2.374l7.951-10.169c.389-.497.301-1.222-.197-1.611l-7.229-5.654c-.497-.389-1.196-.426-1.585.072l-23.182 29.648c-1.696 2.17-1.362 3.232.288 5.033 1.976 2.129 5.866 5.535 9.074 8.044 6.732 5.266 15.934 8.676 22.966-.318l.283-.362c6.962-8.904 1.451-17.22-5.055-22.309M205.9055 573.9352c-3.064 5.319-5.865 6.619-9.344 4.614-3.479-2.005-3.76-5.08-.695-10.399l2.95-5.121c3.065-5.319 5.837-6.569 9.316-4.564 3.479 2.005 3.788 5.031.723 10.35zm7.353-24.369c-8.249-4.754-17.691-4.567-24.68 7.563l-2.95 5.121c-6.988 12.13-2.444 20.443 5.806 25.198 8.25 4.754 17.721 4.517 24.709-7.613l2.95-5.12c6.988-12.13 2.415-20.394-5.835-25.149M240.1985 595.214c-.994 2.506-3.261 3.088-6.833 1.671-.374-.148-2.559-1.015-4.063-1.734l3.363-8.48c.287.052 3.593 1.364 3.913 1.49 4.105 1.629 4.974 3.64 3.979 6.146zm22.056-22.789-9.809-3.892c-.587-.232-1.012.217-1.49.644l-11.931 10.327c-.8-.317-1.386-.55-3.06-1.152l5.181-13.066c.233-.587-.056-1.257-.643-1.49l-8.637-3.426c-.586-.233-1.31.036-1.542.623l-13.832 34.877c-1.015 2.56-.395 3.485 1.697 4.746 2.005 1.166 7.189 3.655 10.974 5.156 9.916 3.934 17.935 3.473 21.806-6.286l.338-.854c2.263-5.706.45-10.313-2.338-13.085l13.482-11.439c.192-.171.33-.364.393-.523.19-.48-.056-.949-.589-1.16M282.5511 611.6285l-8.28-2.119 7.921-30.954c.156-.611-.216-1.239-.827-1.395l-9.059-2.319c-.611-.156-1.239.216-1.395.828l-7.922 30.953-8.447-2.161c-.611-.157-1.225.16-1.381.771l-1.82 7.113c-.157.612.23 1.184.841 1.341l28.008 7.167c.611.157 1.281-.146 1.438-.757l1.82-7.113c.156-.611-.286-1.198-.897-1.355M52.7547 294.4092c-.262 1.188-.717 4.644-.999 8.997-.323 4.955.318 9.942 7.866 10.559l24.887 2.036c.504.04.942-.343.975-.852l.154-2.362c.034-.509-.352-.959-.855-1.001l-24.886-2.034c-3.477-.284-4.706-1.177-4.387-6.087l.582-8.937c.02-.324-.196-.528-.517-.554l-2.15-.176c-.274-.023-.607.136-.67.411M54.2244 280.9414c-.491 3.206-.539 5.643-.53 7.711.016.803.183.926.682 1.011l1.812.309c.5.085.782-.243.845-.655.006-.046.014-.093.021-.138.142-2.137.564-5.498.886-7.604.842-5.498 3.242-6.592 6.414-6.052 2.266.388 3.331 1.932 5.23 6.534l1.994 4.9c1.892 4.647 3.88 7.149 7.506 7.767 5.483.936 8.631-2.616 9.698-9.58.414-2.703.682-6.275.677-8.063-.021-.474-.199-.833-.651-.91l-1.949-.333c-.453-.078-.775.197-.845.655-.007.047-.007.047-.014.093-.172 2.038-.527 5.267-.934 7.924-.723 4.718-2.029 6.564-5.337 6-2.129-.363-3.167-2.091-4.719-5.928l-1.847-4.641c-2.313-5.847-4.517-8.15-8.142-8.77-4.351-.742-9.415.746-10.797 9.77M62.6843 244.0186c-.827 1.79-1.487 3.481-2.441 7.297-1.381 5.522-.028 12.639 10.782 15.535l6.182 1.657c10.897 2.92 15.327-2.645 16.706-8.168.708-2.828.992-5.674 1.174-7.732.057-.415.001-.766-.399-.872l-2.268-.61c-.267-.071-.511-.041-.624.408-.011.045-.022.09-.034.134-.27 1.653-.834 5.046-1.484 7.65-1.101 4.4-4.488 7.132-12.05 5.105l-6.183-1.657c-7.472-2.003-9.244-6.118-8.143-10.518.639-2.558 1.67-5.731 2.207-7.312.011-.044.033-.134.044-.178.124-.495-.042-.779-.531-.91l-1.825-.488c-.533-.143-.901.189-1.113.659M96.8123 236.0254c.428.31.636.686.479 1.119-.172.479-.568.625-1.09.575l-15.615-1.423 3.46-9.606zm-24.234-21.585-.924 2.564c-.141.391.067.766.381.984l8.902 6.586-4.056 11.256-10.922-.98c-.376-.043-.803.19-.928.538l-.924 2.565c-.157.434.036.853.424.999.086.033.216.083.317.072l30.975 2.603c2.897.257 4.281-1.54 4.876-3.191.579-1.608.711-3.88-1.654-5.616l-25.224-18.699c-.071-.076-.201-.125-.287-.158-.388-.147-.784-.001-.956.477M112.6531 201.0977c.377.37.526.772.307 1.177-.244.445-.658.529-1.166.4l-15.266-3.774 4.872-8.945zm-20.784-24.961-1.301 2.388c-.198.363-.048.765.23 1.027l7.836 7.844-5.708 10.482-10.679-2.625c-.366-.1-.824.065-1 .389l-1.301 2.388c-.221.404-.093.846.269 1.049.082.045.203.115.305.12l30.313 7.271c2.832.694 4.472-.867 5.309-2.404.816-1.497 1.288-3.717-.796-5.788l-22.198-22.267c-.058-.086-.18-.153-.26-.2-.363-.203-.777-.118-1.019.326M106.1521 155.3926c-1.391 1.385-2.59 2.737-4.791 5.972-3.184 4.679-4.328 11.794 4.895 18.23l5.278 3.683c9.301 6.49 15.38 2.822 18.564-1.86 1.631-2.397 2.869-4.956 3.742-6.815.196-.369.262-.715-.079-.954l-1.936-1.351c-.228-.159-.47-.216-.729.166-.025.037-.05.075-.077.114-.818 1.449-2.506 4.423-4.008 6.63-2.537 3.729-6.669 5.111-13.122.607l-5.276-3.683c-6.377-4.45-6.649-8.905-4.113-12.634 1.475-2.168 3.53-4.775 4.575-6.066.026-.037.078-.114.104-.152.285-.419.224-.741-.193-1.033l-1.557-1.085c-.456-.318-.916-.135-1.277.231M141.1394 159.7051c.299.437.366.858.07 1.21-.326.388-.749.387-1.225.161l-14.271-6.722 6.543-7.774zm-15.545-28.526-1.748 2.076c-.266.316-.197.738.024 1.05l6.169 9.223-7.669 9.112-9.987-4.687c-.341-.172-.824-.101-1.06.181l-1.747 2.075c-.296.351-.257.809.059 1.081.07.061.176.15.276.176l28.384 13.128c2.65 1.242 4.57.041 5.695-1.296 1.095-1.301 1.994-3.377.35-5.815l-17.464-26.174c-.04-.095-.146-.186-.216-.246-.317-.271-.741-.272-1.066.116M158.4539 127.5381c5.757 6.11 4.352 10.781.359 14.581-1.562 1.489-2.625 2.438-3.786 3.416l-18.956-20.12c1-1.08 2.065-2.094 3.628-3.583 3.99-3.802 8.736-4.927 14.461 1.149zm-21.236-8.339c-2.528 2.408-4.929 5.016-5.735 6.104-.369.478-.38 1.002.097 1.509l21.851 23.19c.445.473.997.523 1.493.18 1.124-.751 3.842-3.023 6.37-5.428 6.153-5.862 7.056-12.807.185-20.098l-4.293-4.557c-6.806-7.224-13.815-6.76-19.968-.9M168.2654 93.3594c-1.493.92-5.081 3.638-7.224 5.295-5.084 3.934-6.234 7.934-2.468 12.821l10.902 14.151c3.767 4.888 7.919 4.784 13.003.85 2.142-1.657 5.5-4.373 6.912-5.7.189-.206.137-.575-.033-.794l-1.416-1.839c-.198-.258-.486-.329-.739-.132l-7.01 5.423c-3.85 2.979-5.26 2.428-7.412-.365l-3.936-5.11 11.15-8.626c.399-.308.47-.893.16-1.296l-1.076-1.397c-.312-.404-.894-.482-1.293-.174l-11.15 8.627-4.758-6.173c-2.151-2.795-2.327-4.301 1.523-7.281l7.01-5.422c.253-.197.257-.494.059-.75l-1.444-1.875c-.17-.22-.514-.365-.76-.233M198.0056 74.5654l-1.922 1.169c-.432.263-.568.834-.303 1.269l14.328 23.481c.047.08.072.119.033.143-.039.024-.039.024-.127-.031l-12.762-8.311c-.876-.553-1.485-.671-2.467-.075l-1.804 1.096c-.981.598-1.157 1.192-1.066 2.222l1.54 15.131c.01.102.01.102-.03.127-.039.023-.064-.016-.111-.095l-14.327-23.48c-.265-.437-.836-.579-1.268-.316l-1.923 1.168c-.431.263-.566.834-.302 1.269l16.768 27.481c.386.633 1.21.838 1.838.455l2.551-1.549c.706-.428.923-.778.844-1.435l-1.812-17.518c-.061-.451.009-.602.205-.722.196-.119.362-.111.737.151l14.761 9.646c.55.372.96.339 1.666-.089l2.551-1.55c.628-.381.824-1.207.437-1.84l-16.767-27.482c-.266-.434-.836-.577-1.268-.315M238.8728 91.9102l-13.364-11.563c-1.543-1.326-2.651-1.729-3.558-1.713l-5.642-11.902c-.199-.418-.731-.68-1.147-.487l-2.289 1.072c-.416.195-.55.769-.351 1.189l5.642 11.899c-.609.645-.98 1.79-.935 3.818l.506 17.58c-.004.206.034.393.094.519.159.335.57.45.985.256l2.539-1.189c.291-.136.486-.584.471-.936l-.695-16.264c-.041-1.158.19-1.42.439-1.537.292-.136.602-.128 1.474.642l12.222 10.869c.263.235.652.411.985.255l2.538-1.188c.416-.194.588-.581.429-.917-.06-.125-.181-.273-.343-.403M362.3523 194.3829s-9.489-31.557-5.765-55.476c3.678-23.909 10.836-36.786 16.39-43.737 5.556-7.008 11.779-9.631 11.779-9.631l7.679 20.663s-9.964 5.648-15.963 15.994c-6.024 10.404-8.564 16.257-11.583 29.556-3.011 13.307-2.537 20.559-2.537 27.514ZM318.1287 194.3829s9.489-31.557 5.768-55.476c-3.678-23.909-10.848-36.786-16.386-43.737-5.565-7.008-11.513-9.73-11.513-9.73l-7.954 20.762s9.971 5.648 15.963 15.994c6.029 10.404 8.566 16.257 11.588 29.556 3.01 13.307 2.534 20.559 2.534 27.514ZM373.4627 76.4085c0-6-4.651-16.402-4.651-16.402s10.594 32.681-28.857 32.681c-39.422 0-28.878-32.754-28.878-32.754s-1.133 1.948-1.635 2.983c-1.942 4.125-3.047 8.699-3.047 13.492 0 17.832 15.036 32.283 33.525 32.283 18.514 0 33.543-14.451 33.543-32.283M340.2425 345.8101c1.003 0 1.805-34.96 1.805-78.058 0-43.123-.802-78.06-1.805-78.06-1.002 0-1.81 34.937-1.81 78.06 0 43.098.808 78.058 1.81 78.058-4.838 0-8.76-51.566-8.76-115.183 0-63.613 3.922-115.176 8.76-115.176 4.834 0 8.753 51.563 8.753 115.176 0 63.617-3.919 115.183-8.753 115.183M404.8826 124.6406l-1.818-4.766c96.892 27.135 164.126 113.893 164.126 212.725 0 57.368-22.412 111.755-63.106 153.146-39.83 40.518-93.117 64.518-150.339 67.791 5.962-46.075 9.882-126.604 10.537-216.919 55.397-11.038 95.373-58.668 95.373-114.069 0-39.787-20.449-76.322-54.773-97.908m-10.405-12.395 6.041 15.838.757.467c33.228 20.561 53.062 55.701 53.062 93.998 0 53.623-39.192 99.621-93.182 109.375l-2.165.387-.012 2.149c-.624 93.035-4.706 175.835-10.919 221.488l-.419 3.073 3.177-.14c59.794-2.613 115.593-27.312 157.112-69.543 41.643-42.363 64.577-98.028 64.577-156.738 0-102.873-71.171-192.969-173.069-219.08Z"/></g></svg>