<?xml version="1.0" encoding="UTF-8" standalone="no"?>
<!DOCTYPE svg PUBLIC "-//W3C//DTD SVG 1.1//EN" "http://www.w3.org/Graphics/SVG/1.1/DTD/svg11.dtd">
<svg xmlns="http://www.w3.org/2000/svg" version="1.1" viewBox="0.00 0.00 755.00 2151.00">
<path fill="#ffffff" d="
  M 388.76 1540.75
  C 373.21 1545.90 364.47 1490.10 362.95 1481.06
  C 354.47 1430.76 349.95 1379.54 346.35 1328.69
  C 339.68 1234.50 335.98 1140.07 333.62 1045.69
  C 328.89 856.26 328.75 652.59 334.46 456.00
  C 337.28 358.87 341.63 261.55 350.28 164.75
  C 353.55 128.16 357.64 91.46 364.26 55.31
  Q 367.59 37.11 373.29 19.52
  C 375.67 12.17 378.58 5.62 383.61 0.78
  A 1.14 1.13 -64.7 0 1 384.46 0.47
  C 387.22 0.62 389.90 0.62 392.09 2.55
  C 397.31 7.14 399.94 13.87 402.08 20.31
  C 412.42 51.55 416.70 85.47 420.42 118.06
  C 427.18 177.35 431.29 236.99 434.35 296.57
  C 442.93 463.57 445.10 625.20 444.62 798.31
  Q 444.23 941.10 439.94 1083.82
  C 438.41 1134.99 426.51 1528.27 388.76 1540.75
  Z
  M 384.65 21.93
  Q 381.75 58.88 380.79 95.93
  C 379.95 128.69 378.92 161.55 378.83 194.31
  Q 378.26 405.94 376.79 617.57
  Q 375.81 758.72 376.59 837.94
  C 377.11 889.87 377.88 941.84 381.11 993.69
  C 382.08 1009.16 383.64 1023.21 387.10 1037.54
  A 0.36 0.36 0.0 0 0 387.80 1037.49
  C 390.94 1005.09 391.41 972.10 392.26 939.56
  C 397.19 751.60 398.35 563.58 396.98 375.56
  C 396.12 258.07 394.26 140.62 388.61 23.24
  Q 388.21 14.89 387.53 6.69
  A 0.27 0.26 -41.3 0 0 387.01 6.66
  Q 385.26 14.15 384.65 21.93
  Z"
/>
<path fill="#ffffff" d="
  M 295.38 1439.49
  C 284.60 1421.69 271.24 1405.75 257.99 1389.70
  Q 257.65 1389.29 258.13 1389.07
  C 270.20 1383.45 282.56 1377.04 295.25 1373.76
  A 2.20 2.19 62.7 0 1 297.47 1374.47
  Q 311.45 1390.92 320.82 1410.72
  Q 344.38 1460.56 354.57 1514.74
  A 0.96 0.96 0.0 0 1 353.89 1515.83
  Q 333.13 1521.78 314.00 1531.80
  A 0.68 0.68 0.0 0 1 313.15 1531.62
  C 280.30 1490.33 243.41 1453.61 196.65 1428.22
  A 0.28 0.27 -49.3 0 1 196.62 1427.76
  Q 215.59 1413.56 235.77 1401.00
  Q 240.73 1397.92 247.60 1395.56
  Q 248.07 1395.40 248.51 1395.66
  Q 250.09 1396.59 250.51 1396.99
  Q 272.82 1418.30 295.00 1439.80
  A 0.25 0.25 0.0 0 0 295.38 1439.49
  Z"
/>
<path fill="#ffffff" d="
  M 478.47 1440.41
  C 491.63 1429.56 504.76 1415.90 525.41 1395.43
  Q 525.80 1395.05 526.32 1395.23
  C 527.63 1395.69 529.29 1396.11 530.50 1396.75
  Q 555.30 1409.84 577.39 1427.01
  A 0.31 0.30 49.8 0 1 577.35 1427.52
  C 530.79 1453.07 494.27 1491.09 460.60 1531.44
  Q 460.26 1531.84 459.81 1531.57
  C 447.30 1524.22 433.71 1520.42 420.57 1515.44
  A 0.90 0.90 0.0 0 1 420.01 1514.42
  Q 427.02 1479.87 438.44 1446.44
  C 447.15 1420.93 458.80 1395.37 475.23 1374.58
  Q 475.56 1374.17 476.07 1374.28
  C 489.61 1377.12 504.00 1380.80 515.60 1388.50
  Q 516.05 1388.80 515.73 1389.24
  C 512.84 1393.12 510.15 1396.94 506.76 1400.63
  Q 490.13 1418.70 478.22 1440.20
  Q 477.80 1440.97 478.47 1440.41
  Z"
/>
<path fill="#ffffff" d="
  M 272.89 1564.62
  C 264.74 1561.85 257.32 1560.43 249.58 1558.27
  A 1.30 1.27 -7.2 0 1 248.83 1557.70
  Q 245.54 1552.26 239.08 1542.70
  C 236.11 1538.28 232.79 1538.36 228.09 1540.48
  Q 222.34 1543.08 216.79 1546.05
  Q 216.33 1546.30 215.98 1545.90
  C 201.24 1529.30 186.98 1511.17 180.56 1489.57
  A 1.21 1.20 6.2 0 0 179.98 1488.85
  C 175.82 1486.48 169.07 1501.30 168.19 1503.23
  A 0.83 0.83 0.0 0 1 167.32 1503.70
  C 140.95 1500.08 114.17 1495.96 87.59 1500.29
  A 0.67 0.67 0.0 0 1 86.87 1499.34
  C 97.08 1478.14 108.28 1456.67 123.22 1438.07
  C 124.93 1435.94 126.72 1435.73 129.26 1435.95
  Q 139.13 1436.82 148.71 1439.41
  C 206.13 1454.96 266.35 1488.88 300.95 1539.70
  A 0.46 0.46 0.0 0 1 300.85 1540.33
  Q 286.47 1551.45 273.74 1564.42
  Q 273.38 1564.79 272.89 1564.62
  Z"
/>
<path fill="#ffffff" d="
  M 599.31 1507.48
  C 631.75 1505.63 662.50 1505.36 693.54 1516.58
  Q 694.02 1516.76 694.21 1517.24
  Q 706.17 1548.03 710.27 1580.81
  Q 710.41 1581.94 709.39 1581.45
  C 645.03 1550.58 570.04 1546.13 501.39 1563.85
  Q 500.93 1563.97 500.58 1563.66
  L 473.54 1540.28
  A 0.71 0.71 0.0 0 1 473.43 1539.34
  C 503.32 1497.18 549.51 1466.11 597.42 1447.85
  C 613.50 1441.72 630.55 1436.86 647.84 1436.09
  Q 648.34 1436.07 648.69 1436.42
  C 665.49 1453.66 678.29 1476.96 687.17 1499.32
  Q 687.47 1500.07 686.66 1500.01
  Q 663.02 1498.03 639.00 1499.26
  C 626.38 1499.91 610.75 1501.66 599.22 1507.12
  Q 598.34 1507.53 599.31 1507.48
  Z"
/>
<path fill="#ffffff" d="
  M 165.57 1506.82
  A 0.82 0.82 0.0 0 1 166.31 1507.72
  Q 164.03 1531.09 170.96 1553.50
  A 0.74 0.73 80.5 0 1 170.29 1554.45
  Q 147.07 1555.40 124.58 1559.87
  C 104.18 1563.93 83.82 1573.15 64.04 1581.23
  Q 63.25 1581.55 63.41 1580.71
  C 67.45 1559.44 71.94 1537.72 79.51 1517.31
  Q 79.68 1516.85 80.15 1516.71
  C 108.91 1507.96 135.64 1503.93 165.57 1506.82
  Z"
/>
<path fill="#ffffff" d="
  M 510.67 1638.18
  L 512.69 1627.82
  Q 513.09 1625.75 514.95 1626.76
  Q 516.43 1627.56 517.83 1629.93
  Q 526.08 1643.94 534.30 1662.96
  C 538.37 1672.38 536.89 1678.67 533.70 1689.09
  Q 528.55 1705.90 519.65 1721.09
  A 0.31 0.31 0.0 0 1 519.08 1721.00
  C 518.21 1716.95 514.97 1704.47 511.49 1702.21
  C 507.90 1699.87 499.42 1709.81 495.02 1714.27
  Q 485.68 1723.74 475.45 1731.76
  A 1.32 1.32 0.0 0 1 473.80 1731.74
  C 461.96 1721.94 449.29 1710.38 436.85 1702.79
  C 409.33 1685.99 377.50 1681.05 346.77 1673.45
  Q 288.13 1658.95 239.58 1623.18
  C 200.69 1594.52 177.15 1558.13 175.74 1508.78
  Q 175.69 1506.93 176.35 1506.22
  A 1.22 1.22 0.0 0 1 178.34 1506.52
  Q 192.03 1534.53 212.61 1556.85
  Q 212.66 1556.90 213.64 1558.35
  Q 214.49 1559.60 215.93 1558.43
  Q 221.13 1554.21 227.82 1551.76
  A 1.66 1.66 0.0 0 1 229.54 1552.11
  C 238.51 1560.58 244.52 1571.45 252.90 1580.42
  C 255.99 1583.73 260.32 1588.95 264.50 1590.75
  C 270.85 1593.49 271.83 1577.29 279.51 1577.29
  Q 280.02 1577.29 280.34 1577.70
  Q 296.75 1598.95 324.29 1606.92
  C 327.11 1607.74 328.32 1607.52 328.59 1604.33
  Q 329.32 1595.46 333.14 1587.45
  A 0.88 0.86 15.3 0 1 334.03 1586.95
  Q 335.55 1587.11 337.32 1588.18
  Q 348.26 1594.82 362.44 1600.10
  C 371.64 1603.53 378.99 1609.82 388.25 1612.75
  A 1.52 1.52 0.0 0 0 390.18 1611.68
  C 391.88 1605.07 388.58 1597.49 394.96 1592.79
  A 1.32 1.32 0.0 0 1 396.36 1592.67
  C 407.02 1598.11 417.89 1602.04 429.01 1606.23
  C 438.85 1609.93 443.48 1614.08 450.76 1619.27
  Q 451.24 1619.61 451.38 1619.05
  C 452.97 1612.92 450.84 1602.52 455.10 1599.08
  A 0.98 0.98 0.0 0 1 456.09 1598.93
  Q 457.33 1599.42 459.27 1600.52
  Q 488.25 1616.93 510.07 1638.36
  Q 510.54 1638.82 510.67 1638.18
  Z"
/>
<path fill="#ffffff" d="
  M 106.58 1656.54
  C 89.67 1662.39 71.00 1674.92 57.67 1684.42
  Q 41.51 1695.95 24.72 1708.74
  A 0.55 0.54 -22.2 0 1 23.85 1708.38
  C 20.13 1681.11 20.94 1651.66 23.00 1624.46
  A 2.12 2.11 -15.9 0 1 23.88 1622.89
  C 59.79 1597.26 105.23 1581.21 148.27 1573.10
  Q 156.44 1571.55 171.25 1570.00
  Q 174.45 1569.67 176.35 1569.75
  Q 176.87 1569.77 177.14 1570.21
  C 191.52 1593.91 207.28 1618.07 229.21 1633.95
  Q 229.69 1634.29 229.18 1634.58
  C 153.73 1676.96 96.72 1736.94 53.26 1811.43
  A 0.37 0.37 0.0 0 1 52.61 1811.40
  C 39.32 1783.40 29.81 1752.83 25.96 1722.02
  Q 25.90 1721.54 26.25 1721.21
  C 51.89 1696.73 79.41 1677.62 106.82 1656.99
  Q 108.16 1655.99 106.58 1656.54
  Z"
/>
<path fill="#ffffff" d="
  M 664.96 1655.52
  A 0.22 0.22 0.0 0 0 664.77 1655.91
  C 693.64 1676.46 722.58 1697.45 748.42 1721.76
  Q 748.80 1722.11 748.67 1722.62
  C 741.12 1753.75 735.47 1785.70 722.56 1815.16
  A 0.59 0.59 0.0 0 1 721.50 1815.21
  Q 657.80 1697.54 541.09 1632.29
  Q 540.68 1632.06 540.55 1631.61
  Q 532.20 1602.83 514.04 1579.01
  A 0.66 0.65 64.9 0 1 514.41 1577.98
  C 598.27 1558.32 682.36 1574.99 753.06 1624.17
  Q 753.47 1624.45 753.48 1624.94
  C 753.84 1647.57 754.42 1670.11 752.95 1692.74
  Q 752.44 1700.61 750.44 1708.57
  A 0.55 0.55 0.0 0 1 749.57 1708.86
  C 730.02 1692.89 709.19 1677.52 687.12 1665.09
  Q 676.49 1659.09 664.96 1655.52
  Z"
/>
<path fill="#ffffff" d="
  M 396.15 1760.41
  Q 397.89 1760.04 399.84 1758.86
  Q 423.84 1744.36 449.86 1732.31
  Q 451.12 1731.72 451.66 1732.99
  Q 452.99 1736.06 454.28 1739.51
  C 456.27 1744.79 456.44 1750.68 456.55 1756.20
  A 0.61 0.61 0.0 0 0 457.45 1756.72
  C 461.68 1754.39 467.35 1753.68 470.99 1751.03
  Q 478.03 1745.91 484.70 1740.33
  C 491.64 1734.53 498.03 1726.68 504.82 1719.91
  A 0.71 0.70 63.0 0 1 506.01 1720.30
  C 506.73 1724.94 508.07 1740.67 511.25 1743.24
  Q 511.64 1743.55 512.13 1743.56
  C 524.65 1743.73 541.02 1712.63 544.79 1701.32
  Q 550.17 1685.16 551.83 1668.20
  A 0.55 0.55 0.0 0 1 552.70 1667.80
  Q 567.05 1678.00 579.11 1691.13
  Q 622.44 1738.31 646.45 1797.71
  Q 646.64 1798.17 647.12 1798.23
  C 669.78 1801.30 693.34 1810.86 709.00 1828.09
  C 711.50 1830.84 705.61 1844.04 703.95 1847.38
  Q 685.05 1885.53 653.29 1915.78
  Q 648.44 1920.40 642.28 1919.85
  C 627.11 1918.51 610.65 1917.13 597.20 1909.36
  Q 596.76 1909.11 596.64 1908.62
  C 594.08 1898.48 596.44 1889.48 598.03 1879.89
  C 598.64 1876.22 598.52 1872.67 598.50 1869.01
  A 0.49 0.49 0.0 0 0 597.80 1868.58
  C 590.85 1872.01 585.15 1878.27 579.34 1883.59
  Q 577.04 1885.70 573.47 1886.63
  Q 572.98 1886.76 572.70 1886.34
  C 569.25 1881.16 560.67 1867.60 553.24 1866.99
  C 526.93 1864.82 500.44 1864.50 474.07 1863.10
  C 458.17 1862.26 443.77 1860.31 427.20 1857.08
  Q 387.37 1849.33 347.39 1842.38
  C 344.69 1841.90 342.61 1840.24 340.73 1838.78
  Q 301.84 1808.44 264.31 1776.44
  Q 261.71 1774.22 258.73 1772.60
  A 0.72 0.72 0.0 0 0 257.82 1772.80
  C 254.70 1776.93 255.34 1788.37 255.56 1793.83
  A 0.44 0.44 0.0 0 1 254.79 1794.15
  Q 239.31 1777.20 222.69 1760.81
  C 218.40 1756.58 213.78 1751.92 208.08 1749.68
  A 1.95 1.95 0.0 0 0 205.41 1751.45
  C 205.27 1757.57 205.89 1765.65 203.38 1771.36
  A 1.82 1.82 0.0 0 1 200.63 1772.09
  Q 196.94 1769.35 193.76 1766.24
  C 181.34 1754.07 167.13 1739.78 158.31 1724.76
  A 0.45 0.45 0.0 0 1 158.72 1724.08
  Q 178.55 1725.10 198.54 1725.01
  C 202.52 1724.99 207.45 1724.13 212.02 1724.25
  A 0.76 0.76 0.0 0 1 212.75 1724.93
  L 214.44 1741.60
  Q 214.48 1742.00 214.88 1741.95
  Q 239.28 1739.29 260.99 1728.03
  C 268.81 1723.97 268.82 1744.83 268.98 1748.09
  A 0.94 0.94 0.0 0 0 269.82 1748.97
  C 274.31 1749.40 278.74 1749.51 283.25 1748.58
  C 297.17 1745.69 311.27 1739.77 324.52 1734.75
  A 1.41 1.41 0.0 0 1 326.22 1735.33
  Q 331.40 1743.76 331.85 1753.72
  A 1.37 1.37 0.0 0 0 333.20 1755.03
  Q 339.91 1755.12 346.67 1752.59
  Q 367.45 1744.79 387.27 1735.99
  A 1.47 1.47 0.0 0 1 389.22 1736.75
  C 392.40 1744.08 392.79 1752.06 395.23 1759.87
  Q 395.45 1760.56 396.15 1760.41
  Z"
/>
<path fill="#ffffff" d="
  M 211.23 1798.01
  C 215.91 1792.45 216.30 1779.89 216.47 1772.87
  A 0.40 0.40 0.0 0 1 217.19 1772.63
  Q 236.49 1796.63 259.19 1817.55
  C 264.96 1822.88 265.17 1814.22 265.21 1811.15
  Q 265.32 1802.71 265.99 1794.63
  Q 266.15 1792.71 267.80 1793.72
  Q 269.26 1794.61 270.82 1795.95
  C 291.56 1813.84 309.79 1831.15 332.91 1849.58
  C 338.46 1854.01 344.23 1854.98 351.33 1856.63
  Q 364.32 1859.65 377.18 1862.58
  A 0.42 0.42 0.0 0 1 377.39 1863.27
  C 358.47 1883.80 341.18 1907.13 329.61 1932.67
  C 309.82 1976.37 316.17 2018.74 338.16 2060.27
  A 0.38 0.38 0.0 0 1 337.73 2060.82
  C 297.51 2050.71 265.02 2034.93 234.71 2005.28
  Q 218.85 1989.76 214.28 1985.00
  Q 213.92 1984.63 213.42 1984.49
  Q 190.16 1978.11 169.18 1966.20
  Q 168.70 1965.93 168.15 1965.99
  C 149.14 1967.92 133.08 1963.55 115.33 1961.13
  A 0.80 0.79 83.5 0 0 114.49 1962.20
  C 118.44 1972.71 125.26 1981.77 129.63 1991.55
  A 3.80 3.80 0.0 0 0 132.39 1993.73
  C 150.44 1997.14 177.44 1999.14 186.77 2017.88
  C 187.47 2019.29 192.52 2029.82 190.61 2032.94
  A 0.93 0.92 -74.4 0 1 189.82 2033.39
  Q 179.16 2033.49 169.54 2038.11
  A 0.98 0.98 0.0 0 1 168.56 2038.04
  Q 153.41 2027.73 138.27 2020.48
  C 136.56 2019.66 126.16 2015.77 129.04 2022.23
  C 129.70 2023.70 131.38 2025.84 132.77 2027.17
  C 141.66 2035.74 157.51 2045.98 159.71 2058.50
  Q 161.77 2070.26 159.71 2082.36
  A 1.16 1.16 0.0 0 1 158.09 2083.23
  C 150.85 2080.01 144.31 2076.86 136.69 2074.42
  Q 136.18 2074.26 135.90 2073.81
  C 135.29 2072.86 134.37 2072.12 133.82 2071.26
  C 126.14 2059.08 117.50 2045.83 107.56 2035.39
  A 1.09 1.09 0.0 0 0 105.69 2036.25
  Q 105.79 2037.18 106.18 2038.45
  C 110.13 2051.54 116.03 2064.61 117.50 2077.99
  C 118.68 2088.81 109.70 2098.59 102.42 2105.57
  A 0.86 0.86 0.0 0 1 101.10 2105.40
  Q 94.72 2095.31 84.43 2089.23
  Q 83.95 2088.95 83.96 2088.39
  C 84.20 2074.56 84.44 2060.14 82.35 2046.47
  A 0.52 0.52 0.0 0 0 81.36 2046.35
  C 79.14 2051.76 77.23 2056.77 75.70 2062.71
  C 71.76 2077.96 67.31 2083.85 51.09 2086.93
  Q 50.46 2087.05 50.43 2086.41
  Q 49.69 2073.36 42.47 2062.45
  A 1.22 1.20 -52.4 0 1 42.34 2061.40
  Q 42.71 2060.36 43.28 2059.54
  C 50.44 2049.37 56.70 2041.10 61.14 2030.69
  Q 61.33 2030.25 61.10 2029.82
  Q 55.53 2019.55 49.34 2012.91
  Q 23.77 1985.46 9.31 1965.68
  Q 6.35 1961.63 4.91 1953.46
  C 0.68 1929.54 -0.88 1900.66 2.38 1876.18
  Q 2.45 1875.64 2.97 1875.51
  Q 45.19 1864.69 88.27 1871.77
  A 0.58 0.58 0.0 0 0 88.94 1871.21
  C 89.86 1819.87 112.17 1768.18 145.35 1729.52
  A 1.21 1.21 0.0 0 1 147.38 1729.82
  Q 153.78 1744.33 163.74 1756.75
  C 168.23 1762.35 202.04 1800.10 210.45 1798.48
  Q 210.92 1798.38 211.23 1798.01
  Z"
/>
<path fill="#ffffff" d="
  M 430.83 1875.70
  A 0.30 0.29 -63.2 0 1 430.99 1876.19
  C 413.92 1894.28 396.63 1912.58 384.04 1934.04
  C 381.03 1939.17 378.81 1944.12 378.34 1950.33
  Q 377.75 1958.21 377.75 1966.11
  Q 377.75 1966.62 377.39 1966.99
  C 373.01 1971.64 367.72 1975.70 363.89 1981.66
  Q 363.62 1982.10 363.70 1982.61
  Q 364.18 1985.50 365.01 1988.24
  Q 377.36 2028.90 400.31 2064.32
  A 0.51 0.51 0.0 0 1 399.95 2065.10
  Q 381.90 2067.30 363.74 2065.54
  C 359.70 2065.15 357.43 2063.78 355.06 2060.29
  C 343.92 2043.96 337.54 2021.09 334.50 2001.65
  C 325.74 1945.64 351.03 1903.59 392.33 1868.82
  C 394.26 1867.20 394.96 1866.81 397.62 1867.59
  Q 413.93 1872.34 430.83 1875.70
  Z"
/>
<path fill="#ffffff" d="
  M 755.00 1958.31
  L 755.00 1959.10
  L 749.22 1964.19
  Q 748.82 1964.54 749.00 1965.04
  Q 755.33 1982.45 754.21 2000.48
  Q 754.08 2002.60 752.62 2004.23
  A 0.70 0.69 34.7 0 1 751.78 2004.38
  Q 750.23 2003.59 749.17 2002.33
  Q 743.81 1995.98 730.61 1980.84
  Q 725.63 1975.13 719.76 1979.80
  Q 719.38 1980.10 719.39 1980.59
  C 719.76 1993.73 720.35 2005.52 712.92 2017.03
  A 0.95 0.95 0.0 0 1 711.27 2016.94
  Q 705.88 2006.02 699.78 1995.47
  Q 695.63 1988.29 687.46 1991.95
  Q 686.39 1992.43 686.14 1994.01
  Q 683.93 2008.20 673.11 2016.65
  A 1.36 1.36 0.0 0 1 670.96 2015.91
  Q 667.72 2002.98 662.43 1991.57
  C 660.68 1987.78 653.80 1988.82 650.83 1989.78
  A 1.06 1.04 -1.8 0 0 650.16 1990.48
  C 647.46 1999.96 645.79 2006.31 641.54 2012.58
  A 1.66 1.65 -42.3 0 1 638.72 2012.45
  Q 632.25 2000.77 627.83 1988.14
  Q 627.69 1987.72 627.25 1987.75
  L 617.13 1988.34
  A 1.15 1.15 0.0 0 0 616.11 1989.13
  C 613.96 1995.82 611.23 2004.63 607.00 2010.35
  A 1.25 1.25 0.0 0 1 604.97 2010.32
  Q 598.75 2001.42 593.99 1991.64
  Q 593.76 1991.16 593.26 1990.97
  C 589.59 1989.62 581.37 1988.68 579.56 1993.69
  Q 576.85 2001.21 573.68 2008.28
  A 0.87 0.87 0.0 0 1 572.41 2008.66
  C 566.97 2005.24 565.26 1998.73 563.56 1992.89
  Q 563.42 1992.40 562.91 1992.36
  C 555.46 1991.82 548.06 1993.73 541.28 1993.24
  C 520.14 1991.72 504.20 1978.27 484.39 1972.48
  Q 467.58 1967.58 450.52 1963.65
  Q 448.63 1963.21 447.57 1963.66
  A 1.08 1.08 0.0 0 0 447.60 1965.67
  Q 463.64 1971.84 478.51 1978.73
  Q 485.97 1982.18 490.04 1985.02
  Q 507.84 1997.44 525.84 2009.57
  C 531.63 2013.47 537.14 2017.15 543.54 2020.04
  Q 546.88 2021.55 548.59 2018.35
  C 550.72 2014.34 552.71 2009.41 555.81 2006.09
  A 1.71 1.71 0.0 0 1 558.67 2006.69
  Q 561.46 2014.57 564.03 2022.21
  C 565.12 2025.47 567.22 2025.47 570.56 2025.76
  Q 575.09 2026.16 579.75 2025.69
  A 1.47 1.46 -84.0 0 0 581.01 2024.66
  C 582.75 2018.99 584.71 2012.43 589.00 2008.00
  Q 589.39 2007.60 589.80 2007.97
  C 595.29 2012.87 599.83 2021.80 603.12 2028.36
  A 0.72 0.72 0.0 0 0 603.76 2028.75
  L 612.48 2028.75
  Q 612.89 2028.75 613.02 2028.35
  C 615.20 2021.57 616.67 2012.71 621.62 2007.47
  A 0.89 0.89 0.0 0 1 622.91 2007.46
  C 629.03 2013.90 632.14 2021.75 635.96 2029.60
  Q 636.14 2029.98 636.56 2030.00
  L 646.72 2030.50
  Q 647.23 2030.53 647.37 2030.04
  Q 649.25 2023.69 650.76 2015.27
  C 651.32 2012.17 652.89 2006.46 655.65 2004.22
  Q 656.88 2003.22 657.78 2004.53
  Q 665.70 2016.13 671.77 2028.84
  Q 672.07 2029.45 672.75 2029.41
  L 682.72 2028.76
  Q 683.23 2028.73 683.52 2028.31
  C 688.60 2020.87 691.34 2010.91 693.53 2002.64
  Q 694.20 2000.11 695.70 2002.25
  Q 703.34 2013.07 708.36 2024.21
  C 710.43 2028.79 712.40 2030.83 717.22 2031.50
  Q 718.37 2031.66 718.89 2030.63
  Q 725.11 2018.35 728.39 2004.99
  A 1.55 1.53 74.4 0 1 728.80 2004.25
  C 732.51 2000.49 735.58 2009.02 736.44 2011.77
  C 739.55 2021.70 739.37 2030.59 739.22 2041.50
  A 0.76 0.75 -79.0 0 0 739.70 2042.22
  L 742.49 2043.32
  A 2.17 2.16 -67.6 0 1 743.68 2046.19
  C 737.07 2061.49 721.29 2076.35 707.97 2085.97
  C 706.62 2086.94 705.08 2087.48 703.32 2086.86
  C 644.71 2066.50 583.34 2068.07 524.50 2086.02
  Q 506.58 2091.49 495.68 2095.43
  Q 493.64 2096.17 488.00 2094.79
  Q 459.22 2087.75 434.55 2074.20
  C 417.38 2064.77 407.70 2051.56 398.15 2034.42
  Q 388.52 2017.15 381.83 1998.47
  Q 378.90 1990.29 378.72 1986.24
  C 378.51 1981.59 387.67 1972.84 389.47 1970.21
  C 391.36 1967.46 388.90 1961.90 389.25 1958.75
  C 392.70 1926.94 432.68 1893.42 458.31 1877.49
  Q 458.74 1877.23 459.24 1877.24
  Q 501.94 1878.23 544.55 1881.08
  Q 545.03 1881.11 545.39 1881.44
  C 554.98 1890.05 561.04 1900.86 566.12 1912.66
  C 568.24 1917.60 572.52 1917.97 577.02 1919.41
  C 625.06 1934.73 679.29 1934.57 724.53 1910.41
  Q 724.98 1910.17 725.36 1910.52
  C 739.00 1923.27 749.14 1940.74 755.00 1958.31
  Z
  M 466.96 1914.74
  Q 473.99 1920.11 481.04 1923.61
  C 486.39 1926.26 492.60 1926.47 498.54 1927.17
  C 502.19 1927.60 504.70 1929.02 507.62 1930.92
  Q 509.23 1931.97 510.64 1931.92
  A 1.03 1.03 0.0 0 0 511.40 1930.25
  C 508.40 1926.55 507.08 1923.88 505.97 1918.78
  C 503.88 1909.24 498.62 1899.66 487.00 1903.75
  Q 476.23 1907.53 467.00 1913.54
  A 0.73 0.73 0.0 0 0 466.96 1914.74
  Z"
/>
<circle fill="#ffffff" cx="387.74" cy="2112.38" r="38.16"/>
</svg>
