<?xml version="1.0" encoding="UTF-8" standalone="no"?>
<!DOCTYPE svg PUBLIC "-//W3C//DTD SVG 1.1//EN" "http://www.w3.org/Graphics/SVG/1.1/DTD/svg11.dtd">
<svg xmlns="http://www.w3.org/2000/svg" version="1.1" viewBox="0.00 0.00 618.00 2261.00">
<path fill="#ffffff" d="
  M 266.18 1175.68
  C 256.79 975.59 253.47 759.81 259.06 557.81
  C 261.32 476.13 261.26 419.02 264.77 349.50
  C 268.16 282.42 275.48 215.47 282.97 148.75
  C 286.27 119.32 290.47 90.90 299.19 62.94
  C 300.04 60.20 300.32 56.33 302.07 53.49
  C 304.14 50.13 308.34 45.42 312.79 48.09
  Q 319.43 52.09 322.15 59.58
  C 329.02 78.47 332.55 98.93 335.44 118.76
  Q 341.83 162.57 345.65 206.68
  C 352.90 290.46 357.03 374.53 359.84 458.56
  C 367.05 673.66 367.27 889.08 360.06 1104.18
  C 358.53 1149.86 347.59 1486.19 309.35 1495.72
  Q 308.85 1495.84 308.50 1495.47
  C 303.60 1490.23 300.53 1482.07 298.61 1475.71
  C 290.97 1450.46 286.73 1422.82 283.53 1397.25
  C 274.33 1323.75 269.65 1249.64 266.18 1175.68
  Z
  M 309.41 54.58
  C 307.54 128.56 306.31 202.58 304.65 276.57
  C 300.73 450.54 297.45 624.67 300.64 798.69
  C 301.95 870.30 304.57 941.99 309.84 1013.43
  C 309.95 1014.94 310.56 1016.87 310.53 1018.68
  Q 310.53 1018.70 310.55 1018.69
  Q 310.56 1018.69 310.57 1018.69
  Q 310.59 1018.68 310.59 1018.65
  Q 311.86 984.82 313.15 951.00
  Q 318.93 798.76 320.91 646.44
  C 323.53 443.50 322.19 251.04 311.67 53.80
  Q 311.63 52.96 310.80 52.83
  Q 309.46 52.61 309.41 54.58
  Z"
/>
<path fill="#ffffff" d="
  M 319.67 1632.31
  C 328.23 1657.91 342.23 1684.75 361.69 1703.56
  A 1.05 1.03 -27.5 0 0 362.57 1703.83
  C 378.77 1701.16 392.80 1692.83 404.82 1682.07
  C 437.42 1652.88 462.00 1610.70 463.50 1566.00
  Q 463.63 1562.31 461.57 1548.33
  Q 461.44 1547.38 462.33 1547.71
  C 465.94 1549.01 472.07 1557.83 472.82 1559.43
  C 521.15 1662.49 464.79 1781.13 355.85 1811.34
  Q 348.53 1813.36 339.33 1814.33
  C 318.17 1816.56 298.82 1817.98 278.39 1813.96
  C 198.43 1798.22 137.09 1731.33 131.30 1649.93
  C 128.71 1613.54 138.74 1578.38 159.54 1548.32
  A 0.19 0.19 0.0 0 1 159.89 1548.45
  C 153.90 1597.67 179.59 1646.49 214.81 1679.20
  C 227.52 1691.01 242.26 1700.72 259.47 1704.38
  Q 259.97 1704.49 260.42 1704.25
  Q 261.58 1703.62 262.27 1702.75
  Q 281.32 1678.54 295.58 1651.28
  C 299.28 1644.20 301.79 1639.31 303.00 1632.69
  A 0.83 0.83 0.0 0 0 301.84 1631.78
  L 276.68 1643.07
  Q 274.87 1643.89 274.96 1641.90
  L 276.65 1603.37
  A 2.96 2.95 30.6 0 0 276.22 1601.70
  C 269.22 1590.25 257.16 1582.68 251.00 1571.18
  Q 250.72 1570.67 251.28 1570.53
  Q 270.25 1565.62 289.56 1562.22
  Q 290.02 1562.13 290.30 1561.75
  C 297.79 1551.61 303.80 1539.30 310.36 1528.36
  A 0.83 0.82 -46.5 0 1 311.75 1528.32
  Q 322.72 1544.44 331.73 1561.72
  A 1.11 1.10 -7.6 0 0 332.48 1562.29
  C 345.04 1564.89 358.80 1565.97 370.78 1570.42
  Q 371.50 1570.70 371.06 1571.33
  C 363.40 1582.16 354.23 1592.05 345.67 1602.19
  A 1.27 1.24 64.3 0 0 345.38 1603.05
  L 347.39 1642.90
  A 0.63 0.63 0.0 0 1 346.52 1643.52
  C 337.45 1639.81 329.09 1634.91 320.02 1631.97
  Q 319.50 1631.80 319.67 1632.31
  Z
  M 282.81 1710.92
  C 300.52 1716.29 322.50 1718.86 339.68 1710.88
  A 0.59 0.59 0.0 0 0 339.96 1710.07
  C 327.62 1685.79 319.95 1660.32 311.29 1634.71
  Q 311.04 1633.96 310.82 1634.72
  Q 299.67 1673.35 282.22 1709.58
  A 0.97 0.97 0.0 0 0 282.81 1710.92
  Z"
/>
<path fill="#ffffff" d="
  M 59.66 1754.54
  C 47.80 1729.63 31.96 1709.13 11.69 1690.48
  A 0.28 0.28 0.0 0 1 11.98 1690.01
  Q 48.41 1703.27 87.23 1703.29
  C 95.75 1703.29 105.79 1702.43 115.02 1701.85
  A 0.42 0.41 77.4 0 1 115.43 1702.12
  Q 127.25 1735.44 146.10 1763.62
  Q 150.02 1769.49 154.90 1774.60
  Q 155.37 1775.10 154.69 1775.01
  C 127.36 1771.59 97.96 1769.99 71.30 1778.47
  A 0.60 0.59 69.0 0 1 70.58 1778.14
  Q 65.22 1766.20 59.66 1754.54
  Z"
/>
<path fill="#ffffff" d="
  M 551.88 1778.60
  C 523.38 1771.88 493.70 1768.06 466.11 1774.95
  Q 465.90 1775.00 466.04 1774.84
  C 484.56 1753.88 496.90 1728.13 506.24 1702.16
  Q 506.42 1701.67 506.94 1701.75
  Q 549.63 1708.54 590.92 1697.05
  C 594.87 1695.96 601.12 1693.77 606.28 1692.06
  A 0.36 0.35 10.3 0 1 606.67 1692.62
  C 590.22 1712.66 572.66 1732.66 560.59 1755.32
  Q 555.07 1765.68 552.57 1778.16
  A 0.57 0.57 0.0 0 1 551.88 1778.60
  Z"
/>
<path fill="#ffffff" d="
  M 236.76 1944.74
  Q 223.44 1946.37 210.49 1949.98
  C 168.27 1961.74 128.84 1979.55 88.00 1995.00
  A 0.41 0.41 0.0 0 1 87.56 1994.34
  Q 123.88 1956.72 153.01 1913.32
  Q 165.51 1894.68 174.60 1874.52
  A 1.03 1.03 0.0 0 0 174.06 1873.15
  C 138.44 1857.66 81.68 1865.90 59.15 1901.29
  A 0.45 0.44 -29.7 0 1 58.33 1901.07
  C 57.68 1880.28 65.04 1862.93 79.51 1848.42
  C 100.10 1827.77 128.46 1812.99 157.91 1810.86
  C 203.33 1807.57 240.23 1824.04 268.64 1859.35
  C 302.23 1901.10 302.65 1963.12 271.25 2006.16
  C 258.43 2023.74 236.51 2048.97 213.53 2051.82
  A 0.41 0.41 0.0 0 1 213.20 2051.11
  C 242.75 2024.36 248.41 1982.43 237.37 1945.15
  Q 237.24 1944.68 236.76 1944.74
  Z
  M 118.61 1972.11
  Q 117.77 1972.96 117.35 1973.60
  Q 116.96 1974.20 117.59 1973.86
  Q 170.94 1945.68 228.75 1928.40
  Q 229.31 1928.24 229.18 1927.67
  C 224.75 1909.07 211.38 1893.15 195.21 1883.49
  Q 194.76 1883.23 194.46 1883.64
  C 171.61 1915.42 146.03 1944.25 118.61 1972.11
  Z"
/>
<path fill="#ffffff" d="
  M 562.90 1900.10
  C 558.46 1890.13 549.19 1883.44 539.17 1878.35
  C 511.21 1864.15 477.18 1860.64 447.94 1873.20
  A 0.80 0.79 65.2 0 0 447.54 1874.29
  C 470.03 1919.21 499.94 1959.05 534.99 1994.82
  A 0.24 0.24 0.0 0 1 534.73 1995.22
  C 480.15 1974.43 438.52 1950.61 385.96 1944.63
  A 1.35 1.33 -79.2 0 0 384.52 1945.62
  C 376.13 1977.24 380.07 2028.41 406.20 2051.89
  A 0.23 0.23 0.0 0 1 406.00 2052.28
  C 396.33 2050.16 387.96 2046.46 379.29 2040.90
  Q 330.66 2009.73 321.51 1951.77
  Q 320.03 1942.36 320.60 1931.46
  C 322.71 1891.32 338.72 1861.13 369.94 1835.94
  C 395.12 1815.61 426.42 1808.11 458.35 1810.95
  C 479.08 1812.80 499.99 1820.92 518.45 1830.80
  C 544.98 1844.97 564.06 1868.56 564.32 1899.79
  A 0.74 0.74 0.0 0 1 562.90 1900.10
  Z
  M 393.01 1928.25
  C 428.98 1937.76 457.86 1951.78 496.41 1970.36
  Q 500.19 1972.18 504.11 1973.65
  Q 505.13 1974.03 504.37 1973.25
  C 476.47 1944.80 450.97 1915.25 427.77 1883.70
  Q 427.42 1883.22 426.89 1883.49
  C 408.95 1892.68 399.16 1909.84 392.84 1927.94
  A 0.24 0.24 0.0 0 0 393.01 1928.25
  Z"
/>
<path fill="#ffffff" d="
  M 293.27 2054.17
  C 300.97 2043.57 308.73 2031.18 310.87 2018.48
  Q 311.00 2017.69 311.26 2018.45
  C 321.74 2049.41 344.16 2076.76 367.86 2098.75
  A 0.44 0.44 0.0 0 1 367.90 2099.35
  C 341.72 2131.89 319.84 2173.29 314.63 2214.89
  C 314.06 2219.47 313.60 2225.88 311.40 2230.25
  A 0.39 0.39 0.0 0 1 310.70 2230.24
  Q 309.45 2227.53 308.96 2224.76
  Q 306.66 2211.64 303.54 2198.70
  C 294.62 2161.63 277.33 2129.84 254.41 2099.67
  A 0.98 0.97 49.7 0 1 254.51 2098.37
  Q 275.88 2078.11 293.27 2054.17
  Z"
/>
</svg>
