<?xml version="1.0" encoding="UTF-8" standalone="no"?>
<!DOCTYPE svg PUBLIC "-//W3C//DTD SVG 1.1//EN" "http://www.w3.org/Graphics/SVG/1.1/DTD/svg11.dtd">
<svg xmlns="http://www.w3.org/2000/svg" version="1.1" viewBox="0.00 0.00 401.00 1396.00">
<path fill="#ffffff" d="
  M 197.44 0.00
  L 199.07 0.00
  C 216.76 6.90 223.22 114.25 224.49 133.75
  Q 228.73 198.72 230.39 263.81
  Q 236.35 497.95 225.98 731.94
  C 224.22 771.42 220.55 825.03 215.36 871.32
  Q 212.99 892.38 209.01 913.20
  C 208.05 918.24 203.81 938.89 196.82 938.11
  C 174.70 935.64 166.63 731.54 165.67 707.18
  C 158.83 532.23 159.01 346.32 168.87 170.23
  C 171.24 128.01 174.71 85.26 181.52 43.51
  Q 182.99 34.53 187.49 16.75
  Q 190.43 5.17 197.44 0.00
  Z
  M 196.82 582.90
  Q 198.96 480.73 201.25 378.56
  C 203.96 257.78 205.10 136.51 198.00 15.85
  Q 197.99 15.81 197.95 15.81
  Q 197.93 15.81 197.90 15.81
  Q 197.82 15.82 197.81 15.91
  C 196.16 209.39 190.06 402.77 196.36 596.25
  Q 196.41 597.68 196.52 596.26
  C 196.89 591.84 196.76 585.88 196.82 582.90
  Z"
/>
<path fill="#ffffff" d="
  M 200.91 1396.00
  L 196.69 1396.00
  Q 189.76 1394.56 186.08 1388.89
  C 181.76 1382.25 187.07 1377.97 191.41 1373.96
  Q 191.82 1373.57 191.47 1373.12
  Q 180.62 1359.12 162.59 1359.16
  Q 162.11 1359.16 162.01 1359.64
  Q 160.37 1367.54 153.20 1369.15
  C 142.59 1371.52 135.35 1357.33 141.93 1349.91
  C 147.23 1343.93 155.98 1345.64 161.04 1351.13
  Q 161.27 1351.37 161.26 1351.04
  Q 161.25 1350.90 161.25 1350.77
  Q 161.25 1350.67 161.32 1350.61
  C 176.15 1336.83 180.45 1319.79 181.28 1300.18
  Q 181.56 1293.37 182.19 1286.73
  A 0.42 0.42 0.0 0 0 181.69 1286.28
  C 167.18 1289.13 124.27 1297.13 117.24 1310.67
  Q 117.01 1311.11 117.28 1311.53
  C 120.46 1316.56 121.68 1326.04 115.66 1329.84
  C 102.83 1337.92 94.50 1323.90 98.27 1313.30
  A 1.23 1.19 84.3 0 1 98.75 1312.69
  L 104.76 1308.68
  Q 105.22 1308.38 105.18 1307.84
  C 104.31 1295.70 100.66 1284.98 87.96 1281.08
  Q 87.52 1280.94 87.14 1281.20
  C 81.31 1284.99 73.28 1285.18 68.01 1280.54
  C 54.25 1268.46 77.92 1251.91 88.00 1269.22
  Q 88.24 1269.63 88.72 1269.63
  C 106.31 1269.42 107.67 1252.76 106.17 1239.46
  Q 106.06 1238.49 105.56 1238.07
  Q 105.14 1237.71 104.55 1237.59
  C 100.95 1236.84 98.06 1232.52 97.51 1229.40
  C 95.47 1217.78 108.36 1211.07 116.89 1219.94
  C 121.58 1224.82 122.29 1229.61 117.91 1234.98
  A 1.08 1.08 0.0 0 0 118.00 1236.44
  C 133.11 1250.87 160.05 1255.88 179.93 1254.16
  A 1.24 1.23 -2.8 0 0 181.06 1252.92
  C 180.84 1232.68 166.21 1215.09 150.79 1203.49
  Q 148.53 1201.80 145.36 1200.80
  C 125.36 1194.49 107.85 1181.67 90.57 1168.40
  A 0.54 0.54 0.0 0 0 89.80 1168.51
  C 83.83 1176.62 37.02 1237.45 26.07 1224.73
  Q 24.35 1222.72 24.81 1219.52
  C 28.94 1190.47 20.38 1165.77 4.14 1142.09
  Q 1.41 1138.10 0.15 1134.20
  A 0.65 0.65 0.0 0 1 0.53 1133.40
  C 19.89 1125.87 36.09 1116.06 48.18 1098.93
  Q 48.47 1098.53 48.33 1098.06
  C 36.81 1057.16 50.00 1013.64 82.17 986.04
  A 0.36 0.36 0.0 0 1 82.75 986.41
  C 76.56 1008.45 67.45 1036.86 80.92 1058.10
  Q 81.22 1058.58 81.60 1058.17
  C 94.36 1044.70 102.30 1027.11 107.63 1009.71
  C 118.42 974.52 123.47 935.97 127.53 898.44
  A 0.28 0.28 0.0 0 1 128.09 898.41
  C 142.93 969.79 141.39 1044.02 116.24 1112.84
  A 2.03 2.03 0.0 0 0 116.84 1115.08
  Q 131.69 1127.57 148.56 1137.18
  Q 149.21 1137.55 149.49 1136.85
  C 160.36 1109.49 166.07 1080.97 168.66 1051.68
  C 170.99 1025.22 170.66 996.18 170.88 968.41
  A 0.46 0.46 0.0 0 1 171.65 968.08
  C 182.80 978.69 191.00 992.39 199.55 1005.16
  Q 199.91 1005.68 200.23 1005.14
  C 205.84 995.70 218.77 972.43 228.81 968.88
  Q 229.37 968.69 229.35 969.28
  C 228.52 1004.80 228.79 1039.97 233.61 1075.23
  C 236.69 1097.78 241.85 1117.18 251.04 1136.08
  A 0.85 0.84 64.9 0 0 252.14 1136.48
  C 264.58 1130.95 274.14 1122.95 284.54 1114.49
  A 0.72 0.72 0.0 0 0 284.76 1113.67
  Q 279.10 1099.11 277.85 1095.18
  C 257.27 1030.17 260.66 957.48 273.08 890.91
  A 0.22 0.22 0.0 0 1 273.52 890.94
  C 276.17 922.65 278.70 954.67 285.11 985.92
  C 290.55 1012.52 300.24 1037.95 319.11 1058.16
  A 0.79 0.78 38.8 0 0 320.36 1058.03
  C 331.61 1038.92 324.76 1007.71 318.56 987.79
  Q 317.64 984.83 319.84 987.02
  C 349.30 1016.26 361.53 1057.68 351.94 1098.01
  Q 351.83 1098.46 352.09 1098.85
  C 361.54 1113.11 373.46 1121.41 388.20 1127.88
  Q 394.48 1130.63 400.32 1133.97
  A 0.98 0.97 -57.6 0 1 400.63 1135.39
  C 381.12 1162.88 367.96 1190.47 376.73 1224.84
  A 0.49 0.49 0.0 0 1 376.24 1225.45
  C 345.71 1224.43 329.64 1194.26 314.73 1172.28
  Q 313.58 1170.58 310.62 1168.15
  Q 310.21 1167.81 309.79 1168.14
  C 290.27 1183.64 269.48 1194.38 246.27 1203.50
  Q 244.30 1204.27 242.92 1205.88
  Q 236.02 1213.95 228.77 1221.66
  C 223.03 1227.76 219.75 1232.01 218.61 1239.57
  Q 217.65 1245.95 217.52 1253.40
  Q 217.51 1253.84 217.95 1253.87
  C 238.75 1255.52 265.24 1251.16 280.07 1236.17
  Q 280.44 1235.80 280.08 1235.42
  C 271.67 1226.72 281.17 1217.26 289.99 1215.99
  C 297.70 1214.88 302.02 1224.50 299.72 1230.76
  Q 297.89 1235.73 291.93 1238.25
  Q 291.50 1238.43 291.50 1238.90
  C 291.33 1253.72 291.27 1268.77 309.28 1269.36
  Q 309.75 1269.38 309.95 1268.96
  Q 313.01 1262.64 319.57 1261.84
  C 337.12 1259.72 338.78 1281.21 322.69 1283.55
  C 318.19 1284.20 313.87 1284.07 310.37 1280.77
  Q 309.95 1280.38 309.44 1280.62
  Q 292.28 1288.52 292.67 1307.87
  Q 292.68 1308.42 293.17 1308.68
  C 300.28 1312.46 302.50 1315.78 299.50 1323.99
  C 293.05 1341.58 270.02 1327.99 280.53 1311.79
  Q 280.80 1311.37 280.54 1310.94
  C 271.93 1296.97 232.43 1289.14 216.64 1286.32
  Q 216.14 1286.23 216.12 1286.74
  C 215.00 1310.18 219.53 1332.93 236.52 1350.16
  Q 236.87 1350.51 237.24 1350.18
  Q 248.04 1340.86 257.61 1351.71
  Q 259.59 1353.96 258.83 1358.72
  C 256.58 1372.82 239.03 1373.06 235.13 1359.89
  Q 234.99 1359.39 234.46 1359.37
  Q 216.44 1358.66 206.21 1373.02
  Q 205.88 1373.48 206.31 1373.86
  C 210.42 1377.43 214.99 1381.70 212.17 1387.60
  Q 208.93 1394.35 200.91 1396.00
  Z"
/>
</svg>
